<?xml version="1.0" encoding="UTF-8"?><svg id="Layer_2" xmlns="http://www.w3.org/2000/svg" xmlns:xlink="http://www.w3.org/1999/xlink" viewBox="0 0 235.93 74.99"><defs><style>.cls-1{fill:url(#linear-gradient);}.cls-1,.cls-2,.cls-3,.cls-4,.cls-5{stroke-width:0px;}.cls-2{fill:none;}.cls-3{fill:#218679;}.cls-4{fill:url(#linear-gradient-2);}.cls-5{fill:#2cb3a1;}.cls-6{clip-path:url(#clippath);}</style><linearGradient id="linear-gradient" x1="1.29" y1="50.58" x2="39.16" y2="50.58" gradientUnits="userSpaceOnUse"><stop offset=".03" stop-color="#2cb3a1"/><stop offset=".87" stop-color="#486876"/></linearGradient><clipPath id="clippath"><path class="cls-2" d="m37.04,16.29L5.44,47.89C-2.52,37.45-1.75,22.5,7.77,12.98L20.75,0l16.29,16.29Z"/></clipPath><linearGradient id="linear-gradient-2" x1="-.7" y1="37.75" x2="33.89" y2="3.15" xlink:href="#linear-gradient"/></defs><g id="Layer_1-2"><path class="cls-3" d="m70.37,56.49l-14.16-35.52h8.07l7.41,19.23c.41,1.05.75,1.97,1.04,2.76.29.8.54,1.54.76,2.23.22.69.43,1.37.63,2.03.2.66.41,1.38.61,2.16l-1.47.05c.27-1.05.54-2.02.81-2.92.27-.9.58-1.83.91-2.82.34-.98.76-2.15,1.27-3.5l7-19.23h8.02l-14.26,35.52h-6.65Z"/><path class="cls-3" d="m105.12,57c-2.91,0-5.45-.59-7.61-1.78-2.17-1.18-3.86-2.81-5.07-4.87-1.22-2.06-1.83-4.43-1.83-7.1,0-2.06.34-3.96,1.02-5.68.68-1.73,1.62-3.22,2.84-4.49s2.66-2.25,4.34-2.94c1.67-.69,3.49-1.04,5.45-1.04,1.83,0,3.52.33,5.07.99,1.55.66,2.9,1.59,4.03,2.79,1.13,1.2,2,2.61,2.61,4.24.61,1.62.88,3.4.81,5.33l-.05,2.23h-21.56l-1.17-4.41h16.79l-.81.91v-1.12c-.07-.91-.36-1.74-.89-2.49-.53-.74-1.19-1.32-2-1.73-.81-.41-1.72-.61-2.74-.61-1.49,0-2.75.29-3.78.86-1.03.58-1.82,1.42-2.36,2.54s-.81,2.47-.81,4.06.35,3.03,1.04,4.21c.69,1.18,1.67,2.11,2.94,2.77,1.27.66,2.77.99,4.49.99,1.18,0,2.27-.19,3.25-.56.98-.37,2.03-1.01,3.15-1.93l3.45,4.82c-.98.88-2.06,1.62-3.25,2.21-1.18.59-2.4,1.04-3.65,1.34-1.25.3-2.49.46-3.7.46Z"/><path class="cls-3" d="m119.69,36.1v-6.44h17.71v6.44h-17.71Zm5.02,20.4V22.85h7.21v33.64h-7.21Z"/><path class="cls-3" d="m142.11,56.49v-26.84h6.95l.25,8.62-1.22-1.78c.41-1.39,1.07-2.65,1.98-3.78.91-1.13,1.99-2.02,3.22-2.66,1.23-.64,2.53-.96,3.88-.96.58,0,1.13.05,1.67.15.54.1,1,.22,1.37.36l-1.93,7.92c-.41-.2-.9-.38-1.47-.53-.58-.15-1.17-.23-1.78-.23-.81,0-1.57.14-2.26.43-.69.29-1.29.69-1.8,1.22-.51.53-.91,1.14-1.19,1.85-.29.71-.43,1.49-.43,2.33v13.9h-7.26Z"/><path class="cls-3" d="m173.27,57c-2.23,0-4.25-.61-6.04-1.83-1.79-1.22-3.21-2.88-4.26-4.97-1.05-2.1-1.57-4.5-1.57-7.21s.53-5.1,1.6-7.18c1.07-2.08,2.51-3.72,4.34-4.92,1.83-1.2,3.91-1.8,6.24-1.8,1.32,0,2.53.2,3.63.58,1.1.39,2.06.92,2.89,1.6.83.68,1.53,1.46,2.11,2.33.57.88.98,1.83,1.22,2.84l-1.52-.25v-6.54h7.15v26.84h-7.26v-6.44l1.62-.15c-.27.95-.71,1.84-1.32,2.69-.61.85-1.36,1.6-2.26,2.26-.9.66-1.9,1.18-3.02,1.57s-2.3.58-3.55.58Zm1.98-6.24c1.35,0,2.54-.32,3.55-.96s1.8-1.55,2.36-2.71c.56-1.17.84-2.53.84-4.08s-.28-2.86-.84-4.01c-.56-1.15-1.34-2.05-2.36-2.71-1.01-.66-2.2-.99-3.55-.99s-2.48.33-3.48.99c-1,.66-1.79,1.57-2.36,2.71-.58,1.15-.86,2.49-.86,4.01s.29,2.92.86,4.08c.57,1.17,1.36,2.07,2.36,2.71,1,.64,2.16.96,3.48.96Z"/><path class="cls-5" d="m197.26,56.49V20.98h7.61v35.52h-7.61Zm3.5-28.67v-6.85h20.5v6.85h-20.5Zm0,14.56v-6.55h18.37v6.55h-18.37Z"/><path class="cls-5" d="m231.51,24.12c-1.39,0-2.47-.34-3.25-1.01-.78-.68-1.17-1.64-1.17-2.89,0-1.15.4-2.09,1.19-2.82.79-.73,1.87-1.09,3.22-1.09s2.47.35,3.25,1.04c.78.69,1.17,1.65,1.17,2.87s-.4,2.13-1.19,2.84c-.8.71-1.87,1.07-3.22,1.07Zm-3.55,32.37v-26.84h7.21v26.84h-7.21Z"/><path class="cls-1" d="m33.15,26.17c8.59,10.45,7.97,25.96-1.81,35.74l-13.08,13.08L1.29,58.03l31.86-31.86Z"/><g class="cls-6"><path class="cls-4" d="m37.04,16.29L5.44,47.89C-2.52,37.45-1.75,22.5,7.77,12.98L20.75,0l16.29,16.29Z"/></g></g></svg>